<svg version="1.1" id="Layer_1" xmlns="http://www.w3.org/2000/svg" xmlns:xlink="http://www.w3.org/1999/xlink" x="0px" y="0px"
	 width="100%" viewBox="0 0 389 129" enable-background="new 0 0 389 129" xml:space="preserve">
<path fill="#FEFEFE" opacity="1.000000" stroke="none" 
	d="
M252.000000,130.000000 
	C168.000015,130.000000 84.500038,130.000000 1.000045,130.000000 
	C1.000030,87.000031 1.000030,44.000061 1.000015,1.000068 
	C130.666611,1.000045 260.333221,1.000045 389.999878,1.000023 
	C389.999908,43.999928 389.999908,86.999855 389.999939,129.999893 
	C344.166656,130.000000 298.333344,130.000000 252.000000,130.000000 
M34.674484,100.978752 
	C34.674484,100.978752 34.917568,101.218536 35.226284,101.895950 
	C36.340607,105.783752 37.454933,109.671555 38.569260,113.559357 
	C38.845589,113.507118 39.121918,113.454880 39.398247,113.402641 
	C39.970531,109.371872 40.542816,105.341110 41.794460,101.147781 
	C52.673050,92.926590 59.106937,82.209709 60.506882,68.093887 
	C60.510765,67.759544 60.514648,67.425201 60.799587,66.431610 
	C60.778057,65.957092 60.756527,65.482582 60.935555,64.137314 
	C60.950279,55.612167 59.250572,47.483994 55.165462,39.159023 
	C49.789967,31.762388 44.414471,24.365753 39.006531,16.338039 
	C38.713604,15.786526 38.420677,15.235012 38.119583,14.668129 
	C35.274654,17.725651 32.574848,20.627199 29.312977,23.883678 
	C28.282209,25.274811 27.251444,26.665945 25.758738,28.533554 
	C24.859301,30.028099 23.959864,31.522644 22.672987,33.468925 
	C22.395428,34.184822 22.117868,34.900715 21.276936,36.017361 
	C20.836220,37.301994 20.395504,38.586632 19.378012,40.339676 
	C18.553362,43.544281 17.728712,46.748882 16.411676,50.571476 
	C12.446890,70.361427 18.331099,86.719315 33.590118,99.767853 
	C33.590118,99.767853 33.612034,99.800934 33.791306,100.089371 
	C33.939896,100.270073 34.126179,100.394241 34.453121,100.555016 
	C34.453121,100.555016 34.501328,100.685219 34.674484,100.978752 
M230.736862,88.091660 
	C236.469040,86.151253 238.104263,83.122025 238.092941,75.704025 
	C240.421936,73.692253 242.152588,72.197342 244.578644,70.101730 
	C242.302246,70.223534 241.461197,70.394005 240.654877,70.291443 
	C235.199768,69.597496 229.751999,68.845825 223.693192,68.067490 
	C223.379318,68.685638 223.065445,69.303795 222.971008,70.709000 
	C230.121262,71.556450 232.740738,74.461967 231.888260,81.116135 
	C231.629791,83.133774 230.471420,85.036125 229.133972,87.052521 
	C228.412781,87.372688 227.691574,87.692856 226.244339,87.990471 
	C224.083572,85.911514 220.697922,84.148361 220.060654,81.676605 
	C219.191956,78.307335 220.419052,74.397720 220.793930,70.200623 
	C217.745926,69.535713 215.555374,72.176270 214.593689,74.864243 
	C213.605789,77.625534 213.281433,81.172386 214.157761,83.895630 
	C215.004456,86.526787 217.751694,88.546341 219.659790,90.829453 
	C213.659805,95.252060 213.622375,95.626968 219.155563,99.932907 
	C217.958908,100.879616 216.779022,101.760338 215.657059,102.709549 
	C210.031448,107.468948 210.863907,114.053581 217.941910,116.299568 
	C221.623032,117.467651 225.964706,116.554039 230.681473,116.444977 
	C233.175156,115.101036 235.668854,113.757095 238.788803,112.075630 
	C244.388367,105.643188 244.770950,100.958923 238.833481,97.165771 
	C235.822540,95.242226 231.350555,95.647850 227.563675,94.879333 
	C225.596771,94.480156 223.683350,93.817444 221.745773,93.273773 
	C221.807129,92.702248 221.868484,92.130722 221.929840,91.559196 
	C223.615723,90.704605 225.301620,89.850014 227.571579,89.047096 
	C228.371979,88.734840 229.172394,88.422585 230.736862,88.091660 
M186.771469,73.086296 
	C190.115585,73.304512 194.888382,71.715714 196.009750,75.783813 
	C197.514160,81.241409 197.552109,87.178825 197.571014,92.912392 
	C197.575272,94.201210 194.841187,95.444122 193.490860,96.828300 
	C193.120789,97.207657 193.197159,98.022545 192.916183,99.367546 
	C198.456665,98.167496 203.980042,100.690811 209.214966,97.095634 
	C204.095062,96.250389 203.617035,93.016876 203.955109,89.042946 
	C204.208160,86.068489 203.995804,83.055222 204.007645,80.059296 
	C204.027618,75.000565 202.613937,70.591934 197.556137,68.561256 
	C193.058395,66.755432 189.190521,68.494720 185.131836,72.043610 
	C184.511093,70.760719 183.890335,69.477821 183.283203,68.223099 
	C179.501160,69.267281 175.669891,70.325050 171.838638,71.382812 
	C179.241287,73.494148 177.677063,79.341743 177.278641,84.200813 
	C176.906662,88.737259 180.047195,94.780342 171.417267,97.239334 
	C177.901932,100.362282 183.306625,98.615425 188.783279,98.315155 
	C188.233871,97.105034 187.426788,96.596588 186.692108,95.999115 
	C185.780533,95.257774 184.138321,94.404282 184.174271,93.665535 
	C184.514114,86.681664 182.152969,79.441040 186.771469,73.086296 
M255.753464,70.046326 
	C248.932129,73.642433 246.071701,78.529099 247.069901,86.157990 
	C247.854965,92.157913 250.542221,97.030434 256.889374,99.072884 
	C262.400940,100.846458 270.308838,98.811890 274.386658,94.324631 
	C278.332214,89.982887 279.846680,81.207542 276.732361,76.121933 
	C273.094116,70.180763 267.655518,66.916801 259.657318,68.090286 
	C258.610718,68.706413 257.564087,69.322540 255.753464,70.046326 
M148.440323,68.075287 
	C146.950226,69.084244 145.460129,70.093193 143.270355,71.149666 
	C135.248642,75.130577 133.089005,87.760071 139.220276,94.786331 
	C142.716248,98.792603 147.103439,100.604599 152.343307,99.655701 
	C162.727722,97.775162 167.927094,91.165817 166.974075,81.264732 
	C166.292145,74.180069 160.468842,66.913712 148.440323,68.075287 
M312.720734,98.890877 
	C325.357849,95.622009 331.392365,89.063484 332.735199,77.138344 
	C334.306580,63.184326 323.957367,52.639362 310.113464,53.811497 
	C305.656158,54.188889 301.135681,53.811218 296.644073,53.795738 
	C292.780304,53.782421 288.916473,53.792976 285.052673,53.792976 
	C291.950012,58.467068 291.953644,58.467072 291.949005,66.839600 
	C291.944916,74.172562 291.704071,81.515045 292.010254,88.834808 
	C292.184509,93.001167 291.252258,95.899780 286.330170,97.325951 
	C286.886719,97.883476 287.443268,98.441002 288.919861,99.195602 
	C294.117706,99.141777 299.315582,99.087959 305.259247,99.032295 
	C306.998840,99.037071 308.738464,99.041847 311.226532,99.001610 
	C311.470306,98.945076 311.714081,98.888542 312.720734,98.890877 
M376.872711,84.559303 
	C376.709625,78.390526 372.547607,75.322914 367.039276,72.929611 
	C372.037964,69.695496 374.214783,65.657219 372.824341,60.343655 
	C371.667236,55.921886 368.066010,53.918999 363.983368,53.320591 
	C361.327667,52.931328 358.503998,53.876839 355.749786,53.931461 
	C349.991241,54.045662 344.228851,53.966053 338.468048,53.966053 
	C337.946808,54.355762 337.425568,54.745472 336.904327,55.135181 
	C345.986267,55.641251 343.966064,61.433559 344.004486,66.162094 
	C344.065247,73.647461 343.956573,81.134094 343.995361,88.619797 
	C344.014832,92.376907 344.449127,96.236382 338.897278,96.403564 
	C338.362579,96.419670 337.869598,97.820808 337.065552,99.010643 
	C345.880585,99.010643 354.182983,99.531990 362.388214,98.862312 
	C370.406799,98.207855 375.156494,93.148949 376.872711,84.559303 
M119.450333,81.756424 
	C119.079872,87.663528 121.857941,94.341850 115.345764,99.230095 
	C120.236664,98.964531 125.127563,98.698967 130.018463,98.433403 
	C130.504242,97.656136 130.990021,96.878876 131.475800,96.101608 
	C124.093079,97.009300 125.399956,92.751282 125.332092,89.328377 
	C125.250000,85.188438 125.404358,81.031021 125.069794,76.912582 
	C124.756348,73.054237 122.922440,70.044044 118.990021,68.624954 
	C114.963890,67.172043 111.782990,68.579063 107.653023,71.732208 
	C113.464157,73.287621 119.995605,73.139473 119.450333,81.756424 
M99.956398,81.859535 
	C99.028435,87.282745 103.010239,94.232483 95.104233,97.514801 
	C94.989738,97.562340 95.089935,98.126999 95.089935,99.078026 
	C100.053444,98.356125 105.160713,100.410660 108.671242,98.478264 
	C107.533051,94.943062 106.279091,92.482201 106.021423,89.921112 
	C105.606613,85.797997 105.711952,81.604225 105.848755,77.448563 
	C106.021622,72.197136 102.342674,69.472359 98.453697,68.459076 
	C95.903008,67.794495 92.578354,70.100395 89.600334,71.075943 
	C89.770172,71.522591 89.940002,71.969238 90.109840,72.415886 
	C98.063980,73.087067 99.121788,74.004959 99.956398,81.859535 
M76.076111,99.010071 
	C80.761887,98.347672 85.821770,100.439301 91.311752,96.568062 
	C84.835526,97.080765 86.046532,93.178009 86.002220,90.078941 
	C85.950111,86.433838 85.950119,82.786919 85.996872,79.141678 
	C86.121765,69.403648 86.136520,69.403839 78.030739,71.236786 
	C78.718498,74.443115 79.597191,77.576065 80.008392,80.769218 
	C80.323044,83.212593 80.066673,85.732368 80.028641,88.217613 
	C79.972549,91.883347 80.903259,96.072906 75.454445,96.979538 
	C75.291565,97.006638 75.310974,98.129311 76.076111,99.010071 
z"/>
<path fill="#FCFCFB" opacity="1.000000" stroke="none" 
	d="
M310.478058,99.046623 
	C308.738464,99.041847 306.998840,99.037071 305.212067,98.690964 
	C304.144684,97.181313 303.014648,96.089638 302.132446,94.825066 
	C301.056763,93.283180 299.402832,91.616150 299.360535,89.968285 
	C299.100616,79.840843 299.136536,69.701729 299.343170,59.571980 
	C299.366913,58.408665 300.870331,56.539345 302.005341,56.251980 
	C310.663025,54.060001 321.121460,60.246109 323.787781,68.863701 
	C327.209595,79.922852 323.062012,91.291267 314.386749,95.004501 
	C312.874237,95.651894 311.643860,96.958458 310.203552,98.255119 
	C310.241974,98.715317 310.360016,98.880966 310.478058,99.046623 
z"/>
<path fill="#8F724F" opacity="1.000000" stroke="none" 
	d="
M376.867767,84.957771 
	C375.156494,93.148949 370.406799,98.207855 362.388214,98.862312 
	C354.182983,99.531990 345.880585,99.010643 337.065552,99.010643 
	C337.869598,97.820808 338.362579,96.419670 338.897278,96.403564 
	C344.449127,96.236382 344.014832,92.376907 343.995361,88.619797 
	C343.956573,81.134094 344.065247,73.647461 344.004486,66.162094 
	C343.966064,61.433559 345.986267,55.641251 336.904327,55.135181 
	C337.425568,54.745472 337.946808,54.355762 338.468048,53.966053 
	C344.228851,53.966053 349.991241,54.045662 355.749786,53.931461 
	C358.503998,53.876839 361.327667,52.931328 363.983368,53.320591 
	C368.066010,53.918999 371.667236,55.921886 372.824341,60.343655 
	C374.214783,65.657219 372.037964,69.695496 367.039276,72.929611 
	C372.547607,75.322914 376.709625,78.390526 376.867767,84.957771 
M358.448029,97.003319 
	C365.636261,96.084084 370.212433,90.434830 368.882812,84.121651 
	C367.517792,77.640404 359.990112,74.478325 351.147095,76.839500 
	C351.147095,81.246567 350.927612,85.735390 351.214111,90.191689 
	C351.458740,93.997345 353.490784,96.611801 358.448029,97.003319 
M351.075806,69.142891 
	C351.378296,70.196831 351.766235,72.185211 351.970581,72.166519 
	C355.933868,71.804024 360.467102,72.227951 363.660034,70.378525 
	C367.030579,68.426224 366.578888,63.995880 364.648132,60.482037 
	C363.094269,57.654129 355.781616,54.648499 353.263672,56.484848 
	C351.723145,57.608364 351.615479,60.885311 351.167511,63.252518 
	C350.863922,64.856705 351.087097,66.560585 351.075806,69.142891 
z"/>
<path fill="#8F7250" opacity="1.000000" stroke="none" 
	d="
M310.283173,97.960587 
	C311.643860,96.958458 312.874237,95.651894 314.386749,95.004501 
	C323.062012,91.291267 327.209595,79.922852 323.787781,68.863701 
	C321.121460,60.246109 310.663025,54.060001 302.005341,56.251980 
	C300.870331,56.539345 299.366913,58.408665 299.343170,59.571980 
	C299.136536,69.701729 299.100616,79.840843 299.360535,89.968285 
	C299.402832,91.616150 301.056763,93.283180 302.132446,94.825066 
	C303.014648,96.089638 304.144684,97.181313 304.839172,98.691879 
	C299.315582,99.087959 294.117706,99.141777 288.437164,98.788551 
	C287.606476,97.906670 287.258514,97.431839 286.910522,96.957008 
	C291.252258,95.899780 292.184509,93.001167 292.010254,88.834808 
	C291.704071,81.515045 291.944916,74.172562 291.949005,66.839600 
	C291.953644,58.467072 291.950012,58.467068 285.052673,53.792976 
	C288.916473,53.792976 292.780304,53.782421 296.644073,53.795738 
	C301.135681,53.811218 305.656158,54.188889 310.113464,53.811497 
	C323.957367,52.639362 334.306580,63.184326 332.735199,77.138344 
	C331.392365,89.063484 325.357849,95.622009 312.129883,98.609131 
	C311.120392,98.205116 310.701782,98.082855 310.283173,97.960587 
z"/>
<path fill="#1C8634" opacity="1.000000" stroke="none" 
	d="
M60.734997,65.008064 
	C60.756527,65.482582 60.778057,65.957092 60.514122,66.959976 
	C60.101036,67.805046 60.073612,68.130219 60.146389,68.463867 
	C59.106937,82.209709 52.673050,92.926590 41.300415,100.871307 
	C40.099571,98.169594 39.392773,95.744339 38.742165,92.908127 
	C38.853161,88.998543 38.907970,85.499924 38.975807,81.556473 
	C38.981030,78.737656 38.973217,76.363663 38.977959,73.546951 
	C39.007610,70.738907 39.024715,68.373596 39.487289,66.005592 
	C46.866837,65.671295 53.800915,65.339676 60.734997,65.008064 
z"/>
<path fill="#208C38" opacity="1.000000" stroke="none" 
	d="
M60.835274,64.572693 
	C53.800915,65.339676 46.866837,65.671295 39.468491,65.667801 
	C38.983498,64.882042 38.962765,64.431396 38.958813,63.513954 
	C38.958820,57.021824 38.942047,50.996490 38.944901,44.558502 
	C38.995831,42.767441 39.027130,41.389034 39.505760,40.006889 
	C45.074467,39.959774 50.195847,39.916393 55.317226,39.873013 
	C59.250572,47.483994 60.950279,55.612167 60.835274,64.572693 
z"/>
<path fill="#473024" opacity="1.000000" stroke="none" 
	d="
M226.987503,88.995422 
	C225.301620,89.850014 223.615723,90.704605 221.929840,91.559196 
	C221.868484,92.130722 221.807129,92.702248 221.745773,93.273773 
	C223.683350,93.817444 225.596771,94.480156 227.563675,94.879333 
	C231.350555,95.647850 235.822540,95.242226 238.833481,97.165771 
	C244.770950,100.958923 244.388367,105.643188 238.430298,111.805801 
	C238.035187,110.654999 237.998581,109.774017 237.938049,108.509933 
	C236.804214,101.202560 227.181015,97.422447 220.891541,101.740601 
	C219.135651,102.946144 217.231384,105.512436 217.312149,107.371208 
	C217.392365,109.217293 219.729462,111.125954 221.386154,112.676743 
	C222.244949,113.480644 223.773071,113.569519 225.212189,114.255569 
	C226.953049,115.213394 228.480530,115.897087 230.007996,116.580780 
	C225.964706,116.554039 221.623032,117.467651 217.941910,116.299568 
	C210.863907,114.053581 210.031448,107.468948 215.657059,102.709549 
	C216.779022,101.760338 217.958908,100.879616 219.155563,99.932907 
	C213.622375,95.626968 213.659805,95.252060 219.659790,90.829453 
	C217.751694,88.546341 215.004456,86.526787 214.157761,83.895630 
	C213.281433,81.172386 213.605789,77.625534 214.593689,74.864243 
	C215.555374,72.176270 217.745926,69.535713 220.793930,70.200623 
	C220.419052,74.397720 219.191956,78.307335 220.060654,81.676605 
	C220.697922,84.148361 224.083572,85.911514 226.686523,88.246040 
	C227.081635,88.666214 227.034576,88.830811 226.987503,88.995422 
z"/>
<path fill="#462F23" opacity="1.000000" stroke="none" 
	d="
M149.195007,68.074905 
	C160.468842,66.913712 166.292145,74.180069 166.974075,81.264732 
	C167.927094,91.165817 162.727722,97.775162 152.343307,99.655701 
	C147.103439,100.604599 142.716248,98.792603 139.220276,94.786331 
	C133.089005,87.760071 135.248642,75.130577 143.742340,71.439560 
	C144.097427,72.757088 144.250153,73.917282 143.820541,74.791214 
	C140.649612,81.241661 141.652634,87.360054 145.357529,93.132317 
	C148.473816,97.987526 156.414185,97.659317 159.058121,92.735184 
	C163.093582,85.219452 159.453094,74.764969 151.749420,71.230011 
	C150.647400,70.724327 150.034348,69.153030 149.195007,68.074905 
z"/>
<path fill="#FAF9F9" opacity="1.000000" stroke="none" 
	d="
M256.517487,69.938667 
	C257.564087,69.322540 258.610718,68.706413 259.823822,68.462173 
	C260.683014,69.596687 261.229584,70.693123 262.091034,71.070099 
	C270.295532,74.660568 274.066040,83.488823 270.822235,91.783661 
	C268.924438,96.636536 262.492950,98.652237 258.827423,95.133011 
	C253.319153,89.844627 250.163132,81.005539 255.781265,73.693787 
	C256.477112,72.788177 256.293549,71.206871 256.517487,69.938667 
z"/>
<path fill="#F9F9F8" opacity="1.000000" stroke="none" 
	d="
M148.817657,68.075096 
	C150.034348,69.153030 150.647400,70.724327 151.749420,71.230011 
	C159.453094,74.764969 163.093582,85.219452 159.058121,92.735184 
	C156.414185,97.659317 148.473816,97.987526 145.357529,93.132317 
	C141.652634,87.360054 140.649612,81.241661 143.820541,74.791214 
	C144.250153,73.917282 144.097427,72.757088 144.092194,71.415794 
	C145.460129,70.093193 146.950226,69.084244 148.817657,68.075096 
z"/>
<path fill="#442D21" opacity="1.000000" stroke="none" 
	d="
M256.135468,69.992493 
	C256.293549,71.206871 256.477112,72.788177 255.781265,73.693787 
	C250.163132,81.005539 253.319153,89.844627 258.827423,95.133011 
	C262.492950,98.652237 268.924438,96.636536 270.822235,91.783661 
	C274.066040,83.488823 270.295532,74.660568 262.091034,71.070099 
	C261.229584,70.693123 260.683014,69.596687 260.141235,68.485817 
	C267.655518,66.916801 273.094116,70.180763 276.732361,76.121933 
	C279.846680,81.207542 278.332214,89.982887 274.386658,94.324631 
	C270.308838,98.811890 262.400940,100.846458 256.889374,99.072884 
	C250.542221,97.030434 247.854965,92.157913 247.069901,86.157990 
	C246.071701,78.529099 248.932129,73.642433 256.135468,69.992493 
z"/>
<path fill="#1B9E3B" opacity="1.000000" stroke="none" 
	d="
M33.572086,99.816650 
	C18.331099,86.719315 12.446890,70.361427 16.954170,50.469872 
	C22.919945,66.358376 28.348013,82.346878 33.740360,98.347412 
	C33.882854,98.770233 33.636894,99.323967 33.572086,99.816650 
z"/>
<path fill="#4E392F" opacity="1.000000" stroke="none" 
	d="
M185.943802,72.761009 
	C182.152969,79.441040 184.514114,86.681664 184.174271,93.665535 
	C184.138321,94.404282 185.780533,95.257774 186.692108,95.999115 
	C187.426788,96.596588 188.233871,97.105034 188.783279,98.315155 
	C183.306625,98.615425 177.901932,100.362282 171.417267,97.239334 
	C180.047195,94.780342 176.906662,88.737259 177.278641,84.200813 
	C177.677063,79.341743 179.241287,73.494148 171.838638,71.382812 
	C175.669891,70.325050 179.501160,69.267281 183.283203,68.223099 
	C183.890335,69.477821 184.511093,70.760719 185.545395,72.138344 
	C185.953888,72.409058 185.948837,72.585037 185.943802,72.761009 
z"/>
<path fill="#483126" opacity="1.000000" stroke="none" 
	d="
M119.413330,81.295372 
	C119.995605,73.139473 113.464157,73.287621 107.653023,71.732208 
	C111.782990,68.579063 114.963890,67.172043 118.990021,68.624954 
	C122.922440,70.044044 124.756348,73.054237 125.069794,76.912582 
	C125.404358,81.031021 125.250000,85.188438 125.332092,89.328377 
	C125.399956,92.751282 124.093079,97.009300 131.475800,96.101608 
	C130.990021,96.878876 130.504242,97.656136 130.018463,98.433403 
	C125.127563,98.698967 120.236664,98.964531 115.345764,99.230095 
	C121.857941,94.341850 119.079872,87.663528 119.413330,81.295372 
z"/>
<path fill="#473025" opacity="1.000000" stroke="none" 
	d="
M186.357635,72.923653 
	C185.948837,72.585037 185.953888,72.409058 185.918854,71.971962 
	C189.190521,68.494720 193.058395,66.755432 197.556137,68.561256 
	C202.613937,70.591934 204.027618,75.000565 204.007645,80.059296 
	C203.995804,83.055222 204.208160,86.068489 203.955109,89.042946 
	C203.617035,93.016876 204.095062,96.250389 209.214966,97.095634 
	C203.980042,100.690811 198.456665,98.167496 192.916183,99.367546 
	C193.197159,98.022545 193.120789,97.207657 193.490860,96.828300 
	C194.841187,95.444122 197.575272,94.201210 197.571014,92.912392 
	C197.552109,87.178825 197.514160,81.241409 196.009750,75.783813 
	C194.888382,71.715714 190.115585,73.304512 186.357635,72.923653 
z"/>
<path fill="#4B362B" opacity="1.000000" stroke="none" 
	d="
M99.955048,81.408592 
	C99.121788,74.004959 98.063980,73.087067 90.109840,72.415886 
	C89.940002,71.969238 89.770172,71.522591 89.600334,71.075943 
	C92.578354,70.100395 95.903008,67.794495 98.453697,68.459076 
	C102.342674,69.472359 106.021622,72.197136 105.848755,77.448563 
	C105.711952,81.604225 105.606613,85.797997 106.021423,89.921112 
	C106.279091,92.482201 107.533051,94.943062 108.671242,98.478264 
	C105.160713,100.410660 100.053444,98.356125 95.089935,99.078026 
	C95.089935,98.126999 94.989738,97.562340 95.104233,97.514801 
	C103.010239,94.232483 99.028435,87.282745 99.955048,81.408592 
z"/>
<path fill="#2FA241" opacity="1.000000" stroke="none" 
	d="
M38.962776,82.001305 
	C38.907970,85.499924 38.853161,88.998543 38.641876,92.877892 
	C38.485401,93.258621 38.292206,93.169930 37.919685,93.089897 
	C36.619041,91.546135 35.360760,90.195435 34.814850,88.600853 
	C30.313709,75.453156 25.865179,62.285873 21.597260,49.061100 
	C20.650278,46.126743 20.481750,42.941170 19.954788,39.871265 
	C20.395504,38.586632 20.836220,37.301994 21.604816,36.244591 
	C23.410479,41.208523 24.824957,45.966110 26.379095,50.677624 
	C29.711292,60.779503 33.104996,70.861176 36.504868,80.940536 
	C36.894474,82.095573 36.953648,84.424088 38.962776,82.001305 
z"/>
<path fill="#22A03D" opacity="1.000000" stroke="none" 
	d="
M19.666401,40.105469 
	C20.481750,42.941170 20.650278,46.126743 21.597260,49.061100 
	C25.865179,62.285873 30.313709,75.453156 34.814850,88.600853 
	C35.360760,90.195435 36.619041,91.546135 37.853096,93.440247 
	C37.630337,95.943596 37.101639,98.016556 36.039062,100.182899 
	C35.170563,100.412590 34.835945,100.548904 34.501328,100.685219 
	C34.501328,100.685219 34.453121,100.555016 34.500961,100.229767 
	C34.236546,99.869995 33.924290,99.835464 33.612034,99.800934 
	C33.612034,99.800934 33.590118,99.767853 33.581100,99.792252 
	C33.636894,99.323967 33.882854,98.770233 33.740360,98.347412 
	C28.348013,82.346878 22.919945,66.358376 17.200363,50.160877 
	C17.728712,46.748882 18.553362,43.544281 19.666401,40.105469 
z"/>
<path fill="#26933D" opacity="1.000000" stroke="none" 
	d="
M55.241344,39.516018 
	C50.195847,39.916393 45.074467,39.959774 39.478363,39.545822 
	C38.710415,35.204174 38.196548,31.320255 38.189541,27.435419 
	C38.183247,23.947174 38.733974,20.457924 39.038979,16.969116 
	C44.414471,24.365753 49.789967,31.762388 55.241344,39.516018 
z"/>
<path fill="#473025" opacity="1.000000" stroke="none" 
	d="
M75.660751,98.875626 
	C75.310974,98.129311 75.291565,97.006638 75.454445,96.979538 
	C80.903259,96.072906 79.972549,91.883347 80.028641,88.217613 
	C80.066673,85.732368 80.323044,83.212593 80.008392,80.769218 
	C79.597191,77.576065 78.718498,74.443115 78.030739,71.236786 
	C86.136520,69.403839 86.121765,69.403648 85.996872,79.141678 
	C85.950119,82.786919 85.950111,86.433838 86.002220,90.078941 
	C86.046532,93.178009 84.835526,97.080765 91.311752,96.568062 
	C85.821770,100.439301 80.761887,98.347672 75.660751,98.875626 
z"/>
<path fill="#49AD4F" opacity="1.000000" stroke="none" 
	d="
M38.925274,44.971157 
	C38.942047,50.996490 38.958820,57.021824 38.605392,63.449875 
	C34.230350,51.920753 30.225513,39.988914 26.220676,28.057079 
	C27.251444,26.665945 28.282209,25.274811 29.631931,24.150225 
	C31.864222,30.709587 33.686043,37.033493 35.800377,43.258038 
	C36.082031,44.087223 37.847149,44.412510 38.925274,44.971157 
M37.517323,48.408253 
	C37.517323,48.408253 37.584309,48.520657 37.517323,48.408253 
z"/>
<path fill="#59B45C" opacity="1.000000" stroke="none" 
	d="
M38.944901,44.558502 
	C37.847149,44.412510 36.082031,44.087223 35.800377,43.258038 
	C33.686043,37.033493 31.864222,30.709587 29.912964,23.972759 
	C32.574848,20.627199 35.274654,17.725651 38.119583,14.668129 
	C38.420677,15.235012 38.713604,15.786526 39.022758,16.653578 
	C38.733974,20.457924 38.183247,23.947174 38.189541,27.435419 
	C38.196548,31.320255 38.710415,35.204174 39.031036,39.549561 
	C39.027130,41.389034 38.995831,42.767441 38.944901,44.558502 
z"/>
<path fill="#3AA644" opacity="1.000000" stroke="none" 
	d="
M38.975807,81.556473 
	C36.953648,84.424088 36.894474,82.095573 36.504868,80.940536 
	C33.104996,70.861176 29.711292,60.779503 26.379095,50.677624 
	C24.824957,45.966110 23.410479,41.208523 21.886505,36.044216 
	C22.117868,34.900715 22.395428,34.184822 23.142868,33.460690 
	C27.018179,43.246799 30.321074,53.078621 33.880108,62.816826 
	C35.280575,66.648788 37.253284,70.271614 38.965408,73.989677 
	C38.973217,76.363663 38.981030,78.737656 38.975807,81.556473 
z"/>
<path fill="#4A3429" opacity="1.000000" stroke="none" 
	d="
M224.301865,68.112823 
	C229.751999,68.845825 235.199768,69.597496 240.654877,70.291443 
	C241.461197,70.394005 242.302246,70.223534 244.578644,70.101730 
	C242.152588,72.197342 240.421936,73.692253 238.092941,75.704025 
	C238.104263,83.122025 236.469040,86.151253 230.284271,87.823151 
	C229.796204,87.366859 229.760712,87.179070 229.725220,86.991287 
	C230.471420,85.036125 231.629791,83.133774 231.888260,81.116135 
	C232.740738,74.461967 230.121262,71.556450 223.155090,70.210373 
	C223.660080,69.178764 223.980972,68.645798 224.301865,68.112823 
z"/>
<path fill="#41A949" opacity="1.000000" stroke="none" 
	d="
M38.977959,73.546951 
	C37.253284,70.271614 35.280575,66.648788 33.880108,62.816826 
	C30.321074,53.078621 27.018179,43.246799 23.336586,33.234821 
	C23.959864,31.522644 24.859301,30.028099 25.989706,28.295315 
	C30.225513,39.988914 34.230350,51.920753 38.588612,63.916672 
	C38.962765,64.431396 38.983498,64.882042 39.023026,65.670486 
	C39.024715,68.373596 39.007610,70.738907 38.977959,73.546951 
z"/>
<path fill="#AFB08F" opacity="1.000000" stroke="none" 
	d="
M36.572937,100.089523 
	C37.101639,98.016556 37.630337,95.943596 38.225616,93.520279 
	C38.292206,93.169930 38.485401,93.258621 38.585690,93.288857 
	C39.392773,95.744339 40.099571,98.169594 40.960732,100.952591 
	C40.542816,105.341110 39.970531,109.371872 39.398247,113.402641 
	C39.121918,113.454880 38.845589,113.507118 38.569260,113.559357 
	C37.454933,109.671555 36.340607,105.783752 35.431885,101.517334 
	C35.949303,100.788979 36.261120,100.439247 36.572937,100.089523 
z"/>
<path fill="#412519" opacity="1.000000" stroke="none" 
	d="
M230.344727,116.512878 
	C228.480530,115.897087 226.953049,115.213394 225.629364,114.200378 
	C230.810837,114.489220 234.832550,112.778114 237.961990,108.893044 
	C237.998581,109.774017 238.035187,110.654999 238.117157,111.974564 
	C235.668854,113.757095 233.175156,115.101036 230.344727,116.512878 
z"/>
<path fill="#FAF9F9" opacity="1.000000" stroke="none" 
	d="
M229.429596,87.021904 
	C229.760712,87.179070 229.796204,87.366859 229.902237,87.832489 
	C229.172394,88.422585 228.371979,88.734840 227.279541,89.021255 
	C227.034576,88.830811 227.081635,88.666214 227.049545,88.257317 
	C227.691574,87.692856 228.412781,87.372688 229.429596,87.021904 
z"/>
<path fill="#FAF9F9" opacity="1.000000" stroke="none" 
	d="
M223.997528,68.090157 
	C223.980972,68.645798 223.660080,69.178764 223.045380,69.816841 
	C223.065445,69.303795 223.379318,68.685638 223.997528,68.090157 
z"/>
<path fill="#876840" opacity="1.000000" stroke="none" 
	d="
M286.620361,97.141479 
	C287.258514,97.431839 287.606476,97.906670 287.977142,98.690018 
	C287.443268,98.441002 286.886719,97.883476 286.620361,97.141479 
z"/>
<path fill="#208C38" opacity="1.000000" stroke="none" 
	d="
M60.326637,68.278877 
	C60.073612,68.130219 60.101036,67.805046 60.373596,67.289604 
	C60.514648,67.425201 60.510765,67.759544 60.326637,68.278877 
z"/>
<path fill="#876840" opacity="1.000000" stroke="none" 
	d="
M310.203552,98.255127 
	C310.701782,98.082855 311.120392,98.205116 311.748413,98.579689 
	C311.714081,98.888542 311.470306,98.945076 310.852295,99.024117 
	C310.360016,98.880966 310.241974,98.715317 310.203552,98.255127 
z"/>
<path fill="#1B9E3B" opacity="1.000000" stroke="none" 
	d="
M33.701668,99.945152 
	C33.924290,99.835464 34.236546,99.869995 34.449478,100.183197 
	C34.126179,100.394241 33.939896,100.270073 33.701668,99.945152 
z"/>
<path fill="#1B9E3B" opacity="1.000000" stroke="none" 
	d="
M36.039062,100.182899 
	C36.261120,100.439247 35.949303,100.788979 35.277527,101.178619 
	C34.917568,101.218536 34.674484,100.978752 34.587906,100.831985 
	C34.835945,100.548904 35.170563,100.412590 36.039062,100.182899 
z"/>
<path fill="#FCFBFA" opacity="1.000000" stroke="none" 
	d="
M358.040894,96.990646 
	C353.490784,96.611801 351.458740,93.997345 351.214111,90.191689 
	C350.927612,85.735390 351.147095,81.246567 351.147095,76.839500 
	C359.990112,74.478325 367.517792,77.640404 368.882812,84.121651 
	C370.212433,90.434830 365.636261,96.084084 358.040894,96.990646 
z"/>
<path fill="#F9F8F7" opacity="1.000000" stroke="none" 
	d="
M351.075256,68.681381 
	C351.087097,66.560585 350.863922,64.856705 351.167511,63.252518 
	C351.615479,60.885311 351.723145,57.608364 353.263672,56.484848 
	C355.781616,54.648499 363.094269,57.654129 364.648132,60.482037 
	C366.578888,63.995880 367.030579,68.426224 363.660034,70.378525 
	C360.467102,72.227951 355.933868,71.804024 351.970581,72.166519 
	C351.766235,72.185211 351.378296,70.196831 351.075256,68.681381 
z"/>
<path fill="#F9F8F8" opacity="1.000000" stroke="none" 
	d="
M237.938049,108.509933 
	C234.832550,112.778114 230.810837,114.489220 225.415985,113.926239 
	C223.773071,113.569519 222.244949,113.480644 221.386154,112.676743 
	C219.729462,111.125954 217.392365,109.217293 217.312149,107.371208 
	C217.231384,105.512436 219.135651,102.946144 220.891541,101.740601 
	C227.181015,97.422447 236.804214,101.202560 237.938049,108.509933 
z"/>
<path fill="#59B45C" opacity="1.000000" stroke="none" 
	d="
M37.550816,48.464455 
	C37.584309,48.520657 37.517323,48.408253 37.550816,48.464455 
z"/>
</svg>